<?xml version="1.0" standalone="no"?>
<!DOCTYPE svg PUBLIC "-//W3C//DTD SVG 20010904//EN"
 "http://www.w3.org/TR/2001/REC-SVG-20010904/DTD/svg10.dtd">
<svg version="1.0" xmlns="http://www.w3.org/2000/svg"
 width="900.000000pt" height="261.000000pt" viewBox="0 0 900.000000 261.000000"
 preserveAspectRatio="xMidYMid meet">
<metadata>
Created by potrace 1.10, written by Peter Selinger 2001-2011
</metadata>
<g transform="translate(0.000000,261.000000) scale(0.100000,-0.100000)"
fill="#f67bb4" stroke="none">
<path d="M190 2385 c-20 -24 -50 -88 -50 -106 0 -10 -7 -24 -15 -33 -22 -22
-23 -167 -1 -198 9 -12 16 -33 16 -45 0 -27 122 -153 149 -153 9 -1 27 -10 40
-20 l23 -20 -30 -34 c-25 -28 -32 -47 -37 -101 -9 -82 1 -174 20 -195 8 -9 15
-22 15 -28 0 -17 96 -112 113 -112 8 0 20 -7 27 -15 7 -8 18 -15 25 -15 24 0
32 -41 12 -62 -44 -45 -60 -185 -31 -267 36 -104 83 -151 239 -238 12 -7 34
-24 49 -38 15 -14 29 -25 33 -25 10 0 129 -74 154 -97 14 -13 32 -23 42 -23 9
0 20 -6 24 -14 9 -16 79 -66 92 -66 4 0 51 -29 105 -65 53 -36 101 -65 105
-65 4 0 16 -9 27 -21 10 -12 36 -30 57 -40 21 -11 46 -28 56 -37 25 -24 116
-72 136 -72 9 0 33 11 53 25 20 14 41 25 45 25 5 0 17 10 27 22 14 18 17 38
15 104 -2 45 -7 90 -13 100 -5 11 -10 60 -11 109 -1 92 14 166 44 207 8 13 15
30 15 39 0 9 14 35 30 57 17 23 30 48 30 55 0 7 5 18 11 24 17 17 51 194 45
238 -4 22 -6 50 -6 62 0 12 -5 25 -10 28 -6 3 -10 15 -10 26 0 22 -19 59 -71
139 -40 61 -76 96 -131 129 -21 13 -38 26 -38 31 0 4 -26 21 -57 37 -110 55
-178 96 -204 119 -14 13 -32 24 -41 24 -8 0 -26 8 -39 18 -13 10 -44 28 -69
40 -25 13 -57 31 -71 40 -81 52 -152 92 -164 92 -8 0 -29 12 -47 28 -18 15
-51 36 -73 47 -22 11 -43 25 -48 32 -4 6 -20 14 -36 18 -16 3 -35 13 -42 21
-7 8 -37 27 -68 41 -31 15 -60 32 -66 38 -5 7 -41 29 -80 50 -161 87 -182 99
-219 126 -44 32 -77 37 -96 14z m115 -145 c11 -4 29 -17 39 -29 11 -12 42 -32
70 -46 54 -27 67 -34 131 -75 22 -14 58 -34 80 -45 22 -11 59 -33 82 -48 24
-15 45 -27 49 -27 4 0 33 -17 65 -37 105 -68 127 -81 151 -88 13 -4 37 -18 55
-31 17 -13 37 -24 43 -24 7 0 29 -13 49 -28 20 -15 57 -39 84 -52 26 -14 47
-28 47 -31 0 -4 10 -9 23 -13 24 -6 120 -66 125 -78 2 -5 13 -8 25 -8 12 -1
38 -14 57 -30 19 -17 45 -30 57 -30 30 0 162 -137 183 -189 8 -21 21 -46 29
-55 23 -27 18 -190 -7 -247 -11 -26 -25 -50 -32 -54 -6 -4 -8 -15 -5 -25 3
-10 1 -21 -5 -25 -13 -8 -60 -103 -60 -121 0 -6 -7 -17 -15 -24 -8 -7 -15 -21
-15 -32 0 -10 -7 -30 -16 -44 -14 -20 -16 -45 -12 -138 2 -63 9 -120 15 -128
16 -20 27 -134 13 -143 -13 -8 -82 22 -93 41 -4 8 -14 14 -22 14 -7 0 -22 11
-33 24 -10 13 -39 34 -65 46 -25 12 -51 28 -58 36 -6 8 -17 14 -23 14 -6 0
-26 13 -44 30 -18 16 -36 30 -40 30 -4 0 -36 20 -72 45 -36 25 -69 45 -73 45
-5 0 -36 20 -68 45 -33 25 -63 45 -68 45 -5 0 -16 6 -23 13 -12 12 -84 61
-120 82 -10 5 -34 22 -55 36 -39 26 -83 56 -111 74 -26 17 -51 49 -52 66 0 9
-7 22 -15 29 -19 16 -21 160 -3 178 20 20 53 14 88 -18 18 -16 43 -33 54 -36
12 -4 37 -20 57 -35 20 -16 46 -29 58 -29 12 0 24 -7 27 -15 4 -8 12 -15 19
-15 7 0 18 -7 25 -15 7 -8 19 -15 28 -15 8 0 33 -15 56 -33 23 -19 58 -37 79
-41 32 -6 40 -3 62 20 57 61 27 99 -145 185 -25 12 -49 29 -53 36 -4 7 -13 13
-19 13 -6 0 -33 13 -60 30 -26 17 -53 30 -59 30 -6 0 -28 14 -49 30 -21 17
-59 39 -84 50 -25 12 -48 25 -52 31 -3 6 -25 19 -48 28 -66 29 -138 101 -158
159 -21 58 -22 78 -7 138 10 37 15 44 36 44 14 0 42 -13 63 -30 21 -16 42 -30
48 -30 5 0 15 -7 22 -15 7 -8 19 -15 27 -15 8 0 24 -11 34 -24 11 -14 33 -27
49 -31 16 -4 32 -10 35 -15 3 -5 39 -25 80 -45 40 -20 79 -43 85 -51 7 -8 18
-14 25 -14 7 0 18 -7 25 -15 7 -8 18 -15 26 -15 13 0 68 -33 116 -69 14 -12
32 -21 38 -21 7 0 35 -18 62 -40 61 -48 113 -56 151 -23 34 31 11 123 -32 123
-9 0 -30 13 -45 29 -16 16 -40 32 -54 36 -14 3 -37 15 -50 26 -14 10 -32 19
-41 19 -9 0 -38 16 -65 35 -27 19 -55 35 -62 35 -6 0 -17 7 -25 16 -7 9 -40
29 -73 46 -33 16 -66 36 -73 44 -8 8 -23 14 -32 14 -10 0 -24 7 -31 15 -7 8
-18 15 -24 15 -7 0 -23 11 -36 25 -13 14 -31 25 -40 25 -10 0 -28 8 -41 18
-13 10 -42 27 -64 37 -22 11 -56 32 -76 48 -20 15 -40 27 -43 27 -4 0 -25 12
-49 27 -23 15 -51 32 -61 38 -19 10 -45 47 -67 95 -14 31 -12 160 3 177 10 13
23 12 73 -7z"/>
<path d="M2782 1488 c-13 -17 -1 -45 38 -87 17 -19 43 -53 57 -75 14 -23 30
-45 37 -51 20 -17 68 -83 85 -118 17 -33 54 -48 74 -28 13 13 17 328 4 354 -6
13 -14 16 -30 11 -35 -11 -38 -23 -31 -126 10 -144 -4 -136 -136 75 -32 51
-76 71 -98 45z"/>
<path d="M4042 1492 c-23 -15 -32 -75 -32 -214 0 -128 1 -138 20 -148 12 -6
29 -8 40 -5 17 5 19 20 22 168 3 123 1 167 -9 185 -15 24 -21 26 -41 14z"/>
<path d="M4505 1484 c-11 -12 -15 -30 -13 -63 l3 -46 40 0 40 0 3 50 c3 38 -1
52 -14 62 -24 17 -39 16 -59 -3z"/>
<path d="M4703 1493 c-24 -9 -13 -41 33 -95 25 -29 62 -78 82 -108 19 -30 47
-67 61 -82 14 -16 28 -38 31 -50 7 -28 54 -47 78 -32 15 10 17 32 17 179 0 99
-4 174 -10 182 -8 11 -17 12 -39 3 l-28 -10 7 -109 c5 -71 3 -111 -3 -115 -10
-6 -52 39 -52 56 0 5 -21 38 -47 73 -27 35 -56 76 -66 90 -17 24 -37 30 -64
18z"/>
<path d="M5367 1486 c-8 -9 -23 -38 -32 -66 -9 -27 -20 -52 -25 -55 -5 -3 -14
-30 -20 -60 -6 -30 -16 -58 -22 -61 -16 -10 -46 32 -54 74 -4 20 -14 45 -22
55 -20 23 -7 35 42 39 46 4 67 28 50 56 -9 14 -26 17 -100 17 -109 0 -110 -2
-55 -120 22 -48 43 -102 47 -120 3 -19 12 -39 20 -46 8 -6 14 -21 14 -33 0
-30 18 -46 52 -46 18 0 31 6 34 18 3 9 17 41 30 69 13 29 27 67 31 85 3 18 19
57 35 87 19 34 28 65 26 85 -3 35 -27 45 -51 22z"/>
<path d="M2455 1427 c-19 -35 -35 -69 -35 -76 0 -7 -9 -33 -21 -58 -24 -52
-20 -73 15 -73 20 0 30 9 46 40 11 21 20 47 20 57 0 24 29 65 42 61 11 -4 38
-73 38 -99 0 -9 7 -22 15 -29 8 -7 15 -23 15 -37 l0 -24 -113 2 c-63 1 -119
-1 -125 -5 -16 -10 -15 -56 1 -57 13 -1 318 -1 330 0 10 1 9 28 -2 49 -28 53
-50 103 -66 154 -10 32 -24 63 -31 69 -8 6 -14 18 -14 26 0 27 -32 63 -56 63
-18 0 -31 -14 -59 -63z"/>
<path d="M3252 1442 c-41 -42 -50 -58 -55 -99 -8 -69 6 -131 36 -157 13 -11
27 -28 30 -37 5 -17 62 -33 78 -23 5 3 9 19 9 35 0 22 -6 32 -24 39 -80 30
-89 157 -13 205 24 16 32 28 32 50 0 51 -36 45 -93 -13z"/>
<path d="M3403 1482 c-6 -4 -13 -16 -15 -26 -7 -41 125 -111 146 -78 8 13 -33
65 -71 90 -38 24 -42 25 -60 14z"/>
<path d="M3652 1448 l3 -43 115 -1 c136 0 152 5 148 49 l-3 32 -133 3 -133 3
3 -43z"/>
<path d="M5516 1474 c-20 -19 -20 -38 -1 -57 11 -12 40 -14 129 -13 130 2 154
12 142 60 l-6 26 -124 0 c-100 0 -128 -3 -140 -16z"/>
<path d="M5923 1470 c-38 -22 -53 -48 -53 -87 1 -27 30 -73 47 -73 5 0 26 -9
48 -20 22 -11 51 -20 65 -20 35 0 63 -22 59 -45 -4 -18 -18 -29 -51 -39 -11
-3 -18 -15 -18 -30 0 -33 35 -43 82 -23 29 12 37 22 47 61 20 79 -20 123 -127
142 -75 13 -106 53 -58 76 31 13 39 33 26 59 -13 24 -27 24 -67 -1z"/>
<path d="M6030 1475 c-17 -21 -4 -65 19 -65 10 0 26 -12 35 -26 23 -35 60 -30
64 9 3 22 -5 36 -34 62 -41 38 -65 43 -84 20z"/>
<path d="M6229 1469 c-29 -55 43 -96 77 -44 16 24 16 27 -1 45 -24 26 -61 26
-76 -1z"/>
<path d="M6356 1481 c-4 -6 -11 -83 -15 -173 -8 -142 -7 -165 6 -180 18 -20
31 -22 52 -9 12 8 14 37 12 150 l-2 141 58 -2 58 -3 0 40 0 40 -82 3 c-46 2
-84 -1 -87 -7z"/>
<path d="M6614 1480 c-5 -5 -8 -30 -4 -57 5 -47 6 -48 40 -48 l35 0 0 55 c0
54 -1 55 -30 58 -17 2 -35 -2 -41 -8z"/>
<path d="M6812 1478 c-16 -16 -15 -55 0 -64 7 -5 48 -7 91 -5 108 3 134 -9
143 -65 9 -62 -2 -109 -31 -128 -18 -12 -49 -16 -120 -16 l-96 0 3 -37 3 -38
110 3 c108 4 111 4 143 35 47 45 65 83 58 125 -3 19 -1 43 4 52 7 13 1 29 -24
65 -53 74 -76 85 -181 85 -58 0 -95 -4 -103 -12z"/>
<path d="M7288 1467 c-25 -15 -45 -38 -63 -74 -44 -90 -28 -165 48 -232 50
-42 83 -52 93 -26 11 28 -5 60 -38 75 -72 33 -72 158 0 189 36 16 51 53 32 76
-16 19 -26 18 -72 -8z"/>
<path d="M7407 1483 c-4 -3 -7 -18 -7 -33 0 -20 10 -33 37 -51 21 -13 44 -37
51 -52 27 -56 -8 -139 -63 -149 -22 -3 -34 -53 -18 -69 16 -16 74 2 85 27 6
13 19 26 30 29 36 12 53 76 42 154 -10 71 -125 177 -157 144z"/>
<path d="M7662 1478 c-7 -7 -12 -19 -12 -28 0 -33 22 -40 125 -40 105 0 125
-7 125 -43 0 -36 -29 -46 -132 -47 -53 0 -99 -3 -101 -7 -3 -5 -6 -46 -8 -93
l-4 -84 28 -10 c47 -17 63 1 59 68 -3 53 -2 56 23 62 31 8 75 -10 75 -29 0 -8
9 -22 20 -32 11 -10 20 -23 20 -30 0 -34 74 -61 86 -31 5 14 -33 86 -45 86 -5
0 -12 10 -18 22 -8 19 -5 27 20 51 28 26 29 31 25 88 -4 51 -9 64 -33 85 -26
22 -36 24 -135 24 -69 0 -110 -4 -118 -12z"/>
<path d="M8073 1473 c-3 -8 -2 -27 3 -42 l9 -26 123 -2 123 -2 10 26 c21 55
16 58 -129 60 -113 2 -134 0 -139 -14z"/>
<path d="M8456 1450 c-46 -51 -47 -82 -3 -124 30 -28 50 -36 157 -63 28 -7 35
-14 35 -32 0 -22 -8 -29 -55 -51 -24 -11 -18 -44 10 -53 34 -12 78 6 90 37 5
13 14 27 19 31 18 11 12 58 -12 87 -16 19 -41 32 -87 44 -79 20 -120 40 -120
59 0 7 9 17 20 20 27 9 39 35 29 63 -13 33 -42 27 -83 -18z"/>
<path d="M8586 1475 c-8 -9 -13 -21 -9 -28 11 -24 102 -99 112 -92 34 21 -21
135 -65 135 -12 0 -29 -7 -38 -15z"/>
<path d="M3430 1331 c-72 -6 -75 -7 -75 -31 0 -23 4 -25 55 -30 71 -6 78 -28
21 -65 -43 -27 -56 -67 -26 -79 40 -15 110 49 139 128 l19 49 -23 19 c-12 10
-25 17 -29 16 -3 -1 -40 -4 -81 -7z"/>
<path d="M3652 1308 l3 -33 116 -3 c92 -2 119 0 128 12 9 11 10 20 1 35 -10
19 -20 21 -131 21 l-120 0 3 -32z"/>
<path d="M4502 1328 c-8 -8 -12 -46 -12 -105 0 -92 0 -93 27 -99 48 -12 58 4
58 97 0 46 -3 92 -8 102 -9 20 -47 23 -65 5z"/>
<path d="M5504 1314 c-4 -14 -2 -30 3 -35 5 -5 61 -8 128 -7 97 3 120 6 128
20 8 12 7 21 -2 32 -11 13 -36 16 -132 16 l-119 0 -6 -26z"/>
<path d="M6617 1333 c-3 -4 -6 -50 -8 -102 -4 -104 4 -120 55 -107 l27 7 -3
102 -3 102 -32 3 c-17 2 -33 -1 -36 -5z"/>
<path d="M8082 1328 c-18 -18 -15 -46 6 -51 9 -3 64 -4 122 -3 92 1 105 4 108
19 8 38 -15 47 -122 47 -66 0 -106 -4 -114 -12z"/>
<path d="M2782 1248 c-17 -17 -15 -103 2 -118 8 -6 25 -10 38 -8 20 3 23 10
26 50 5 73 -30 112 -66 76z"/>
<path d="M4694 1246 c-3 -7 -4 -38 -2 -67 l3 -54 35 0 c34 0 35 1 38 41 4 59
-12 94 -43 94 -14 0 -28 -6 -31 -14z"/>
<path d="M5865 1223 c9 -39 43 -83 72 -94 34 -13 41 -12 53 10 12 24 4 48 -19
56 -10 3 -23 17 -29 30 -9 20 -19 25 -48 25 -34 0 -36 -1 -29 -27z"/>
<path d="M8416 1241 c-11 -17 11 -56 50 -89 40 -35 54 -38 72 -20 20 20 14 39
-28 79 -38 37 -81 51 -94 30z"/>
<path d="M3653 1185 c-2 -8 -3 -24 -1 -37 3 -22 5 -23 133 -23 l130 0 0 35 0
35 -128 1 c-98 1 -130 -1 -134 -11z"/>
<path d="M4134 1186 c-3 -8 -4 -25 -2 -38 3 -20 9 -23 55 -26 63 -4 93 10 93
42 0 29 -16 36 -86 36 -38 0 -56 -4 -60 -14z"/>
<path d="M5507 1193 c-12 -11 -8 -50 6 -60 6 -5 68 -9 136 -8 107 0 125 2 135
18 8 12 8 22 0 35 -10 14 -30 17 -141 20 -71 1 -133 -1 -136 -5z"/>
<path d="M8081 1187 c-15 -15 -14 -42 2 -54 6 -6 66 -10 131 -9 127 2 134 4
122 51 -6 24 -7 24 -125 24 -74 0 -123 -5 -130 -12z"/>
</g>
</svg>
